<svg width="839" height="334" viewBox="0 0 839 334" fill="none" xmlns="http://www.w3.org/2000/svg"><path d="M233.06 214.72c-2.88 0-5.184-.816-6.912-2.448-1.632-1.728-2.448-3.984-2.448-6.768v-77.76h-26.208c-5.76 0-8.64-2.544-8.64-7.632 0-5.088 2.88-7.632 8.64-7.632h70.992c5.76 0 8.64 2.544 8.64 7.632 0 5.088-2.88 7.632-8.64 7.632h-26.208v77.76c0 2.784-.864 5.04-2.592 6.768-1.632 1.632-3.84 2.448-6.624 2.448zm62.392.144c-2.592 0-4.752-.72-6.48-2.16-1.632-1.536-2.448-3.696-2.448-6.48V150.64c0-2.784.816-4.896 2.448-6.336 1.728-1.44 3.888-2.16 6.48-2.16 2.592 0 4.752.72 6.48 2.16 1.728 1.44 2.592 3.552 2.592 6.336v55.584c0 2.784-.864 4.944-2.592 6.48-1.728 1.44-3.888 2.16-6.48 2.16zm0-85.536c-3.264 0-5.856-.864-7.776-2.592-1.92-1.824-2.88-4.176-2.88-7.056s.96-5.184 2.88-6.912c1.92-1.728 4.512-2.592 7.776-2.592 3.168 0 5.712.864 7.632 2.592 2.016 1.728 3.024 4.032 3.024 6.912s-.96 5.232-2.88 7.056c-1.92 1.728-4.512 2.592-7.776 2.592zm111.299 12.528c7.68 0 13.536 2.304 17.568 6.912 4.128 4.512 6.192 11.856 6.192 22.032v35.424c0 2.784-.864 4.944-2.592 6.48-1.632 1.44-3.792 2.16-6.48 2.16-2.592 0-4.752-.72-6.48-2.16-1.632-1.536-2.448-3.696-2.448-6.48V170.8c0-5.28-.96-9.024-2.88-11.232-1.824-2.304-4.656-3.456-8.496-3.456-4.704 0-8.448 1.632-11.232 4.896-2.784 3.168-4.176 7.536-4.176 13.104v32.112c0 2.784-.864 4.944-2.592 6.48-1.632 1.44-3.744 2.16-6.336 2.16s-4.752-.72-6.48-2.16c-1.728-1.536-2.592-3.696-2.592-6.48V170.8c0-5.28-.96-9.024-2.88-11.232-1.824-2.304-4.656-3.456-8.496-3.456-4.704 0-8.448 1.632-11.232 4.896-2.688 3.168-4.032 7.536-4.032 13.104v32.112c0 2.784-.864 4.944-2.592 6.48-1.728 1.44-3.888 2.16-6.48 2.16-2.592 0-4.752-.72-6.48-2.16-1.632-1.536-2.448-3.696-2.448-6.48v-55.728c0-2.688.864-4.752 2.592-6.192 1.728-1.44 3.888-2.16 6.48-2.16 2.496 0 4.512.72 6.048 2.16 1.632 1.344 2.448 3.312 2.448 5.904v3.456c2.208-3.84 5.136-6.768 8.784-8.784 3.744-2.016 8.016-3.024 12.816-3.024 10.56 0 17.616 4.416 21.168 13.248 2.112-4.032 5.232-7.248 9.36-9.648 4.128-2.4 8.784-3.6 13.968-3.6zm97.782 52.848c1.632 0 2.928.624 3.888 1.872 1.056 1.248 1.584 2.928 1.584 5.04 0 2.976-1.776 5.472-5.328 7.488-3.264 1.824-6.96 3.312-11.088 4.464-4.128 1.056-8.064 1.584-11.808 1.584-11.328 0-20.304-3.264-26.928-9.792-6.624-6.528-9.936-15.456-9.936-26.784 0-7.2 1.44-13.584 4.32-19.152 2.88-5.568 6.912-9.888 12.096-12.96 5.28-3.072 11.232-4.608 17.856-4.608 6.336 0 11.856 1.392 16.56 4.176 4.704 2.784 8.352 6.72 10.944 11.808 2.592 5.088 3.888 11.088 3.888 18 0 4.128-1.824 6.192-5.472 6.192h-42.48c.576 6.624 2.448 11.52 5.616 14.688 3.168 3.072 7.776 4.608 13.824 4.608 3.072 0 5.76-.384 8.064-1.152 2.4-.768 5.088-1.824 8.064-3.168 2.88-1.536 4.992-2.304 6.336-2.304zm-24.912-40.176c-4.896 0-8.832 1.536-11.808 4.608-2.88 3.072-4.608 7.488-5.184 13.248h32.544c-.192-5.856-1.632-10.272-4.32-13.248-2.688-3.072-6.432-4.608-11.232-4.608zm80.244 60.624a61.812 61.812 0 0 1-20.448-3.456c-6.528-2.4-11.664-5.568-15.408-9.504-.864-.864-1.296-2.016-1.296-3.456 0-.768.192-1.392.576-1.872.384-.576.864-.864 1.44-.864.672 0 1.536.384 2.592 1.152 9.504 8.064 20.352 12.096 32.544 12.096 9.312 0 16.464-1.872 21.456-5.616 5.088-3.84 7.632-9.264 7.632-16.272 0-4.032-1.248-7.296-3.744-9.792-2.496-2.496-5.568-4.368-9.216-5.616-3.648-1.344-8.544-2.736-14.688-4.176-8.352-2.016-14.736-3.792-19.152-5.328-4.416-1.536-8.4-4.128-11.952-7.776-3.456-3.744-5.184-8.832-5.184-15.264 0-5.568 1.44-10.464 4.32-14.688 2.976-4.32 7.104-7.632 12.384-9.936 5.376-2.304 11.52-3.456 18.432-3.456 6.624 0 12.864 1.152 18.72 3.456 5.952 2.304 10.752 5.472 14.4 9.504.96 1.056 1.44 2.208 1.44 3.456 0 .768-.24 1.44-.72 2.016-.384.48-.864.72-1.44.72-.864 0-1.68-.384-2.448-1.152-5.472-4.704-10.368-7.872-14.688-9.504-4.32-1.728-9.408-2.592-15.264-2.592-9.12 0-16.224 1.968-21.312 5.904-5.088 3.936-7.632 9.456-7.632 16.56 0 4.224 1.104 7.68 3.312 10.368 2.304 2.688 5.184 4.8 8.64 6.336 3.552 1.536 7.968 2.976 13.248 4.32l6.192 1.44c6.912 1.536 12.528 3.12 16.848 4.752 4.32 1.536 7.968 3.984 10.944 7.344 3.072 3.36 4.608 7.872 4.608 13.536 0 5.376-1.488 10.128-4.464 14.256-2.88 4.128-7.008 7.344-12.384 9.648-5.28 2.304-11.376 3.456-18.288 3.456zm57.407-.432c-.96 0-1.728-.288-2.304-.864-.48-.576-.72-1.392-.72-2.448v-96.336c0-1.056.24-1.872.72-2.448.576-.576 1.344-.864 2.304-.864.864 0 1.584.336 2.16 1.008.576.576.864 1.344.864 2.304v96.336c0 .96-.288 1.776-.864 2.448-.576.576-1.296.864-2.16.864zm53.843.288c-6.144 0-11.568-1.488-16.272-4.464-4.704-2.976-8.352-7.2-10.944-12.672-2.592-5.472-3.888-11.856-3.888-19.152 0-7.2 1.296-13.536 3.888-19.008 2.592-5.472 6.24-9.696 10.944-12.672 4.704-2.976 10.128-4.464 16.272-4.464 6.144 0 11.568 1.488 16.272 4.464 4.704 2.976 8.352 7.2 10.944 12.672 2.592 5.472 3.888 11.808 3.888 19.008 0 7.296-1.296 13.68-3.888 19.152-2.592 5.472-6.24 9.696-10.944 12.672-4.704 2.976-10.128 4.464-16.272 4.464zm-.144-5.904c7.968 0 14.064-2.592 18.288-7.776 4.32-5.28 6.48-12.816 6.48-22.608 0-9.504-2.208-16.896-6.624-22.176-4.32-5.376-10.32-8.064-18-8.064s-13.728 2.688-18.144 8.064c-4.32 5.28-6.48 12.672-6.48 22.176 0 9.792 2.112 17.328 6.336 22.608 4.32 5.184 10.368 7.776 18.144 7.776zm79.648 0c2.112.192 3.168 1.152 3.168 2.88 0 2.112-1.392 3.024-4.176 2.736l-3.744-.288c-7.2-.48-12.48-2.64-15.84-6.48-3.36-3.936-5.04-9.984-5.04-18.144v-40.32h-11.952c-.672 0-1.248-.24-1.728-.72a2.357 2.357 0 0 1-.72-1.728c0-.768.24-1.392.72-1.872.48-.576 1.056-.864 1.728-.864h11.952v-19.152c0-1.056.288-1.872.864-2.448.576-.576 1.296-.864 2.16-.864.864 0 1.584.288 2.16.864.576.576.864 1.392.864 2.448v19.152h19.152c.672 0 1.248.288 1.728.864.48.48.72 1.104.72 1.872 0 .672-.24 1.248-.72 1.728-.384.48-.96.72-1.728.72h-19.152v40.464c0 6.528 1.248 11.184 3.744 13.968 2.592 2.784 6.576 4.416 11.952 4.896l3.888.288z" fill="#fff"/><path d="M165 167.5c-82.5 0-82.5 0-82.5 82.5C36.937 250 0 213.063 0 167.5S36.937 85 82.5 85s82.5 36.937 82.5 82.5z" fill="#FAAD3C"/><path d="M140.455 167.5c0 32.007-25.948 57.955-57.955 57.955S24.546 199.507 24.546 167.5c57.954 0 57.954 0 57.954-57.955 32.007 0 57.955 25.948 57.955 57.955z" fill="#334772"/><path d="M117 168.5c0 18.502-14.998 33.5-33.5 33.5-18.501 0-33.5-14.998-33.5-33.5 0-18.502 14.999-33.5 33.5-33.5 0 33.5 0 33.5 33.5 33.5z" fill="#445A94"/></svg>