<svg width="301" height="300" viewBox="0 0 301 300" fill="none" xmlns="http://www.w3.org/2000/svg">
<path d="M5.7859e-05 151.99C5.07128e-05 233.734 150.5 300 150.5 300C150.5 300 301 233.734 301 151.99C301 70.2464 233.619 151.99 150.5 151.99C67.3812 151.99 6.50053e-05 70.2464 5.7859e-05 151.99Z" fill="#963254"/>
<path d="M57.8744 137.141C57.8744 188.618 151.103 230.348 151.103 230.348C151.103 230.348 244.332 188.618 244.332 137.141C244.332 85.6635 202.592 137.14 151.103 137.14C99.6143 137.14 57.8744 85.6635 57.8744 137.141Z" fill="#C43569"/>
<path d="M301 148.01C301 66.2663 150.5 -8.0715e-05 150.5 -8.0715e-05C150.5 -8.0715e-05 2.08184e-05 66.2662 6.40568e-06 148.01C-8.00705e-06 229.753 67.3811 148.01 150.5 148.01C233.619 148.01 301 229.753 301 148.01Z" fill="#E80E58"/>
</svg>
