<svg width="2050" height="334" viewBox="0 0 2050 334" fill="none" xmlns="http://www.w3.org/2000/svg">
<path d="M544 167.942C544 206.634 472.5 238 472.5 238C472.5 238 401 206.634 401 167.942C401 129.25 433.012 167.942 472.5 167.942C511.988 167.942 544 129.25 544 167.942Z" fill="#963254"/>
<path d="M516.505 160.913C516.505 185.279 472.214 205.031 472.214 205.031C472.214 205.031 427.922 185.279 427.922 160.913C427.922 136.547 447.752 160.913 472.214 160.913C496.675 160.913 516.505 136.547 516.505 160.913Z" fill="#C43569"/>
<path d="M401 166.058C401 127.366 472.5 96 472.5 96C472.5 96 544 127.366 544 166.058C544 204.75 511.988 166.058 472.5 166.058C433.012 166.058 401 204.75 401 166.058Z" fill="#E80E58"/>
<path d="M621.721 161.584C627.577 163.216 632.089 166.192 635.257 170.512C638.521 174.832 640.153 180.112 640.153 186.352C640.153 194.992 637.033 201.76 630.793 206.656C624.649 211.552 616.153 214 605.305 214H568.153C565.369 214 563.161 213.232 561.529 211.696C559.993 210.16 559.225 208 559.225 205.216V121.264C559.225 118.48 559.993 116.32 561.529 114.784C563.161 113.248 565.369 112.48 568.153 112.48H603.865C614.425 112.48 622.681 114.832 628.633 119.536C634.681 124.144 637.705 130.624 637.705 138.976C637.705 144.352 636.265 149.008 633.385 152.944C630.601 156.88 626.713 159.76 621.721 161.584ZM577.369 155.248H600.841C613.609 155.248 619.993 150.496 619.993 140.992C619.993 136.192 618.409 132.64 615.241 130.336C612.073 128.032 607.273 126.88 600.841 126.88H577.369V155.248ZM603.289 199.6C610.009 199.6 614.905 198.4 617.977 196C621.049 193.6 622.585 189.856 622.585 184.768C622.585 179.68 621.001 175.888 617.833 173.392C614.761 170.896 609.913 169.648 603.289 169.648H577.369V199.6H603.289ZM711.522 142.144C714.306 142.144 716.514 142.912 718.146 144.448C719.778 145.984 720.594 148.048 720.594 150.64V206.512C720.594 209.008 719.73 211.024 718.002 212.56C716.37 214.096 714.21 214.864 711.522 214.864C708.93 214.864 706.866 214.144 705.33 212.704C703.794 211.264 703.026 209.296 703.026 206.8V203.2C700.818 207.04 697.842 210.016 694.098 212.128C690.354 214.144 686.13 215.152 681.426 215.152C664.146 215.152 655.506 205.456 655.506 186.064V150.64C655.506 148.048 656.322 145.984 657.954 144.448C659.586 142.912 661.746 142.144 664.434 142.144C667.218 142.144 669.426 142.912 671.058 144.448C672.69 145.984 673.506 148.048 673.506 150.64V186.208C673.506 191.2 674.514 194.896 676.53 197.296C678.546 199.696 681.714 200.896 686.034 200.896C691.026 200.896 695.01 199.264 697.986 196C701.058 192.64 702.594 188.224 702.594 182.752V150.64C702.594 148.048 703.41 145.984 705.042 144.448C706.674 142.912 708.834 142.144 711.522 142.144ZM778.641 142.144C781.137 141.952 783.105 142.48 784.545 143.728C785.985 144.976 786.705 146.848 786.705 149.344C786.705 151.936 786.081 153.856 784.833 155.104C783.585 156.352 781.329 157.168 778.065 157.552L773.745 157.984C768.081 158.56 763.905 160.48 761.217 163.744C758.625 167.008 757.329 171.088 757.329 175.984V206.224C757.329 209.008 756.465 211.168 754.737 212.704C753.009 214.144 750.849 214.864 748.257 214.864C745.665 214.864 743.505 214.144 741.777 212.704C740.145 211.168 739.329 209.008 739.329 206.224V150.496C739.329 147.808 740.145 145.744 741.777 144.304C743.505 142.864 745.617 142.144 748.113 142.144C750.609 142.144 752.625 142.864 754.161 144.304C755.697 145.648 756.465 147.616 756.465 150.208V155.968C758.289 151.744 760.977 148.48 764.529 146.176C768.177 143.872 772.209 142.576 776.625 142.288L778.641 142.144ZM852.664 142.144C855.352 142.144 857.512 142.912 859.143 144.448C860.776 145.984 861.592 148.048 861.592 150.64V207.52C861.592 218.56 858.52 226.912 852.375 232.576C846.231 238.24 837.159 241.072 825.159 241.072C814.695 241.072 805.96 239.104 798.951 235.168C795.399 233.056 793.623 230.512 793.623 227.536C793.623 225.424 794.104 223.744 795.064 222.496C796.12 221.248 797.464 220.624 799.096 220.624C799.959 220.624 801.015 220.816 802.263 221.2C803.512 221.68 804.808 222.208 806.152 222.784C809.608 224.224 812.68 225.328 815.367 226.096C818.151 226.864 821.32 227.248 824.872 227.248C837.448 227.248 843.735 221.104 843.735 208.816V199.6C841.624 203.536 838.552 206.608 834.519 208.816C830.487 210.928 825.879 211.984 820.695 211.984C814.552 211.984 809.08 210.544 804.28 207.664C799.576 204.688 795.879 200.56 793.191 195.28C790.503 190 789.159 183.904 789.159 176.992C789.159 170.08 790.455 163.984 793.047 158.704C795.736 153.328 799.48 149.2 804.28 146.32C809.08 143.344 814.552 141.856 820.695 141.856C825.879 141.856 830.487 142.96 834.519 145.168C838.552 147.28 841.624 150.304 843.735 154.24V150.496C843.735 148 844.551 145.984 846.183 144.448C847.815 142.912 849.976 142.144 852.664 142.144ZM825.447 198.016C831.207 198.016 835.671 196.144 838.839 192.4C842.103 188.656 843.735 183.52 843.735 176.992C843.735 170.368 842.103 165.184 838.839 161.44C835.671 157.696 831.207 155.824 825.447 155.824C819.784 155.824 815.32 157.696 812.055 161.44C808.792 165.184 807.16 170.368 807.16 176.992C807.16 183.52 808.792 188.656 812.055 192.4C815.32 196.144 819.784 198.016 825.447 198.016ZM935.819 142.144C938.603 142.144 940.811 142.912 942.443 144.448C944.075 145.984 944.891 148.048 944.891 150.64V206.512C944.891 209.008 944.027 211.024 942.299 212.56C940.667 214.096 938.507 214.864 935.819 214.864C933.227 214.864 931.163 214.144 929.627 212.704C928.091 211.264 927.323 209.296 927.323 206.8V203.2C925.115 207.04 922.139 210.016 918.395 212.128C914.651 214.144 910.427 215.152 905.723 215.152C888.443 215.152 879.803 205.456 879.803 186.064V150.64C879.803 148.048 880.619 145.984 882.251 144.448C883.883 142.912 886.043 142.144 888.731 142.144C891.515 142.144 893.723 142.912 895.355 144.448C896.987 145.984 897.803 148.048 897.803 150.64V186.208C897.803 191.2 898.811 194.896 900.827 197.296C902.843 199.696 906.011 200.896 910.331 200.896C915.323 200.896 919.307 199.264 922.283 196C925.355 192.64 926.891 188.224 926.891 182.752V150.64C926.891 148.048 927.707 145.984 929.339 144.448C930.971 142.912 933.131 142.144 935.819 142.144ZM1004.52 141.856C1012.97 141.856 1019.26 144.256 1023.39 149.056C1027.51 153.856 1029.58 161.104 1029.58 170.8V206.224C1029.58 208.912 1028.76 211.024 1027.13 212.56C1025.59 214.096 1023.43 214.864 1020.65 214.864C1017.87 214.864 1015.66 214.096 1014.03 212.56C1012.39 211.024 1011.58 208.912 1011.58 206.224V171.808C1011.58 166.336 1010.52 162.352 1008.41 159.856C1006.39 157.36 1003.18 156.112 998.762 156.112C993.578 156.112 989.402 157.744 986.234 161.008C983.162 164.272 981.626 168.64 981.626 174.112V206.224C981.626 208.912 980.81 211.024 979.178 212.56C977.546 214.096 975.338 214.864 972.554 214.864C969.77 214.864 967.562 214.096 965.93 212.56C964.394 211.024 963.626 208.912 963.626 206.224V150.496C963.626 148 964.442 145.984 966.074 144.448C967.706 142.912 969.914 142.144 972.698 142.144C975.194 142.144 977.21 142.912 978.746 144.448C980.378 145.888 981.194 147.808 981.194 150.208V154.096C983.594 150.16 986.81 147.136 990.842 145.024C994.874 142.912 999.434 141.856 1004.52 141.856ZM1106.61 111.76C1109.3 111.76 1111.51 112.528 1113.24 114.064C1114.96 115.6 1115.83 117.616 1115.83 120.112V206.224C1115.83 208.816 1115.01 210.88 1113.38 212.416C1111.75 213.952 1109.59 214.72 1106.9 214.72C1104.21 214.72 1102.05 213.952 1100.42 212.416C1098.79 210.88 1097.97 208.816 1097.97 206.224V202.624C1095.86 206.56 1092.79 209.632 1088.76 211.84C1084.82 214.048 1080.31 215.152 1075.22 215.152C1069.17 215.152 1063.75 213.616 1058.95 210.544C1054.24 207.472 1050.55 203.152 1047.86 197.584C1045.27 191.92 1043.97 185.44 1043.97 178.144C1043.97 170.848 1045.27 164.464 1047.86 158.992C1050.55 153.52 1054.24 149.296 1058.95 146.32C1063.65 143.344 1069.08 141.856 1075.22 141.856C1080.31 141.856 1084.82 142.912 1088.76 145.024C1092.69 147.136 1095.72 150.112 1097.83 153.952V119.824C1097.83 117.424 1098.6 115.504 1100.13 114.064C1101.76 112.528 1103.92 111.76 1106.61 111.76ZM1079.97 201.184C1085.73 201.184 1090.15 199.216 1093.22 195.28C1096.39 191.344 1097.97 185.728 1097.97 178.432C1097.97 171.136 1096.39 165.568 1093.22 161.728C1090.15 157.792 1085.78 155.824 1080.12 155.824C1074.36 155.824 1069.89 157.744 1066.72 161.584C1063.56 165.424 1061.97 170.944 1061.97 178.144C1061.97 185.44 1063.56 191.104 1066.72 195.136C1069.89 199.168 1074.31 201.184 1079.97 201.184ZM1183.45 147.328C1184.22 145.6 1185.22 144.352 1186.47 143.584C1187.82 142.72 1189.26 142.288 1190.79 142.288C1193 142.288 1194.97 143.056 1196.7 144.592C1198.52 146.032 1199.43 147.856 1199.43 150.064C1199.43 151.12 1199.14 152.224 1198.57 153.376L1159.26 235.744C1157.62 239.008 1155.08 240.64 1151.62 240.64C1149.42 240.64 1147.45 239.92 1145.72 238.48C1144.09 237.136 1143.27 235.408 1143.27 233.296C1143.27 232.24 1143.56 231.04 1144.14 229.696L1153.93 209.104L1127.14 153.376C1126.66 152.416 1126.42 151.312 1126.42 150.064C1126.42 147.856 1127.34 145.984 1129.16 144.448C1131.08 142.912 1133.24 142.144 1135.64 142.144C1137.27 142.144 1138.76 142.576 1140.1 143.44C1141.45 144.208 1142.5 145.456 1143.27 147.184L1163.43 191.68L1183.45 147.328ZM1217.77 214C1217.01 214 1216.29 213.712 1215.61 213.136C1214.94 212.56 1214.61 211.936 1214.61 211.264V115.072C1214.61 114.112 1214.85 113.344 1215.33 112.768C1215.9 112.096 1216.67 111.76 1217.63 111.76C1219.55 111.76 1220.51 112.864 1220.51 115.072V208.528H1272.49C1273.17 208.528 1273.74 208.768 1274.22 209.248C1274.8 209.728 1275.09 210.4 1275.09 211.264C1275.09 212.032 1274.8 212.704 1274.22 213.28C1273.74 213.76 1273.17 214 1272.49 214H1217.77ZM1315.74 142.576C1331.77 142.576 1339.79 151.168 1339.79 168.352V211.264C1339.79 212.32 1339.5 213.136 1338.93 213.712C1338.45 214.288 1337.73 214.576 1336.77 214.576C1335.81 214.576 1335.04 214.288 1334.46 213.712C1333.89 213.04 1333.6 212.224 1333.6 211.264V201.184C1331.49 205.6 1328.41 209.008 1324.38 211.408C1320.45 213.808 1315.93 215.008 1310.85 215.008C1306.43 215.008 1302.35 214.096 1298.61 212.272C1294.96 210.448 1292.03 207.952 1289.82 204.784C1287.71 201.52 1286.65 197.968 1286.65 194.128C1286.65 188.944 1288 184.96 1290.69 182.176C1293.47 179.296 1297.98 177.232 1304.22 175.984C1310.56 174.736 1319.39 174.112 1330.72 174.112H1333.6V168.064C1333.6 161.248 1332.21 156.304 1329.42 153.232C1326.73 150.064 1322.46 148.48 1316.61 148.48C1312 148.48 1307.87 149.104 1304.22 150.352C1300.67 151.504 1297.84 152.848 1295.73 154.384C1295.34 154.672 1294.53 155.248 1293.28 156.112C1292.13 156.88 1291.17 157.264 1290.4 157.264C1289.73 157.264 1289.1 157.024 1288.53 156.544C1288.05 155.968 1287.81 155.296 1287.81 154.528C1287.81 152.704 1289.49 150.784 1292.85 148.768C1296.21 146.752 1299.85 145.216 1303.79 144.16C1307.82 143.104 1311.81 142.576 1315.74 142.576ZM1310.85 208.96C1315.17 208.96 1319.05 207.952 1322.51 205.936C1325.97 203.824 1328.65 200.944 1330.57 197.296C1332.59 193.648 1333.6 189.52 1333.6 184.912V179.728H1330.86C1320.78 179.728 1313.1 180.16 1307.82 181.024C1302.54 181.792 1298.85 183.184 1296.73 185.2C1294.62 187.12 1293.57 190 1293.57 193.84C1293.57 198.256 1295.2 201.904 1298.46 204.784C1301.73 207.568 1305.85 208.96 1310.85 208.96ZM1394.58 142.576C1400.72 142.576 1406.15 144.064 1410.85 147.04C1415.56 150.016 1419.2 154.192 1421.8 159.568C1424.39 164.944 1425.68 171.232 1425.68 178.432C1425.68 185.728 1424.39 192.16 1421.8 197.728C1419.2 203.2 1415.56 207.472 1410.85 210.544C1406.15 213.52 1400.72 215.008 1394.58 215.008C1388.72 215.008 1383.68 213.712 1379.46 211.12C1375.33 208.528 1372.21 204.784 1370.1 199.888V211.264C1370.1 213.472 1369.09 214.576 1367.08 214.576C1366.12 214.576 1365.35 214.288 1364.77 213.712C1364.29 213.136 1364.05 212.32 1364.05 211.264V115.072C1364.05 112.864 1365.06 111.76 1367.08 111.76C1368.04 111.76 1368.76 112.048 1369.24 112.624C1369.81 113.2 1370.1 114.016 1370.1 115.072V157.552C1372.21 152.752 1375.33 149.056 1379.46 146.464C1383.68 143.872 1388.72 142.576 1394.58 142.576ZM1394.58 209.104C1402.26 209.104 1408.26 206.416 1412.58 201.04C1416.9 195.664 1419.06 188.128 1419.06 178.432C1419.06 168.928 1416.9 161.584 1412.58 156.4C1408.26 151.12 1402.21 148.48 1394.44 148.48C1386.66 148.48 1380.66 151.12 1376.44 156.4C1372.21 161.68 1370.1 169.12 1370.1 178.72C1370.1 188.416 1372.21 195.904 1376.44 201.184C1380.66 206.464 1386.71 209.104 1394.58 209.104ZM1467.22 215.008C1463.47 215.008 1459.73 214.48 1455.99 213.424C1452.24 212.272 1448.88 210.736 1445.91 208.816C1443.99 207.568 1442.69 206.56 1442.02 205.792C1441.35 204.928 1441.01 203.968 1441.01 202.912C1441.01 202.24 1441.25 201.664 1441.73 201.184C1442.21 200.608 1442.79 200.32 1443.46 200.32C1443.94 200.32 1444.56 200.608 1445.33 201.184C1446.19 201.664 1446.77 202 1447.06 202.192C1449.84 204.208 1452.72 205.888 1455.7 207.232C1458.77 208.48 1462.61 209.104 1467.22 209.104C1473.46 209.104 1478.26 207.952 1481.62 205.648C1484.98 203.344 1486.66 200.08 1486.66 195.856C1486.66 193.36 1486.03 191.296 1484.79 189.664C1483.63 188.032 1481.67 186.64 1478.88 185.488C1476.19 184.24 1472.31 183.04 1467.22 181.888C1458.77 179.968 1452.72 177.52 1449.07 174.544C1445.43 171.568 1443.6 167.632 1443.6 162.736C1443.6 156.784 1445.91 151.936 1450.51 148.192C1455.22 144.448 1461.27 142.576 1468.66 142.576C1472.21 142.576 1475.62 143.056 1478.88 144.016C1482.15 144.976 1485.03 146.32 1487.52 148.048C1489.35 149.392 1490.64 150.592 1491.41 151.648C1492.27 152.608 1492.71 153.616 1492.71 154.672C1492.71 155.344 1492.47 155.968 1491.99 156.544C1491.51 157.024 1490.93 157.264 1490.26 157.264C1489.49 157.264 1488.24 156.544 1486.51 155.104C1484.02 153.184 1481.38 151.6 1478.59 150.352C1475.91 149.104 1472.5 148.48 1468.37 148.48C1462.99 148.48 1458.63 149.776 1455.27 152.368C1452 154.864 1450.37 158.176 1450.37 162.304C1450.37 164.8 1450.9 166.864 1451.95 168.496C1453.01 170.032 1454.79 171.376 1457.28 172.528C1459.87 173.68 1463.52 174.784 1468.23 175.84C1474.85 177.472 1479.94 179.152 1483.49 180.88C1487.04 182.512 1489.54 184.528 1490.98 186.928C1492.51 189.232 1493.28 192.208 1493.28 195.856C1493.28 201.616 1490.88 206.272 1486.08 209.824C1481.38 213.28 1475.09 215.008 1467.22 215.008Z" fill="black"/>
</svg>
